<?xml version="1.0" encoding="iso-8859-1"?>
<!-- Uploaded to: SVG Repo, www.svgrepo.com, Generator: SVG Repo Mixer Tools -->
<svg height="800px" width="800px" version="1.1" id="Layer_1" xmlns="http://www.w3.org/2000/svg" xmlns:xlink="http://www.w3.org/1999/xlink" 
	 viewBox="0 0 512 512" xml:space="preserve">
<g transform="translate(1)">
	<g>
		<path style="fill:#FFE100;" d="M169.667,503.467H50.2c0-18.773,15.36-34.133,34.133-34.133h51.2
			C154.307,469.333,169.667,484.693,169.667,503.467"/>
		<path style="fill:#FFE100;" d="M92.867,25.6v443.733H127V25.6c0-9.387-7.68-17.067-17.067-17.067S92.867,16.213,92.867,25.6"/>
		<polygon style="fill:#FFE100;" points="178.2,213.333 459.8,213.333 459.8,34.133 178.2,34.133 		"/>
	</g>
	<polygon style="fill:#FFA800;" points="434.2,213.333 459.8,213.333 459.8,34.133 434.2,34.133 	"/>
	<g>
		<path style="fill:#FFE100;" d="M178.2,102.4H127c-5.12,0-8.533-3.413-8.533-8.533s3.413-8.533,8.533-8.533h51.2
			c5.12,0,8.533,3.413,8.533,8.533S183.32,102.4,178.2,102.4z"/>
		<path style="fill:#FFE100;" d="M178.2,179.2H127c-5.12,0-8.533-3.413-8.533-8.533c0-5.12,3.413-8.533,8.533-8.533h51.2
			c5.12,0,8.533,3.413,8.533,8.533C186.733,175.787,183.32,179.2,178.2,179.2z"/>
	</g>
	<path d="M169.667,512L169.667,512H50.2c-5.12,0-8.533-3.413-8.533-8.533c0-23.893,18.773-42.667,42.667-42.667h51.2
		c23.04,0,41.813,17.92,42.667,40.96c0,0.853,0,0.853,0,1.707C178.2,508.587,174.787,512,169.667,512z M60.44,494.933h99.84
		c-3.413-10.24-12.8-17.067-23.893-17.067H84.333C73.24,477.867,63.853,484.693,60.44,494.933z"/>
	<path d="M127,477.867H92.867c-5.12,0-8.533-3.413-8.533-8.533V25.6c0-14.507,11.093-25.6,25.6-25.6s25.6,11.093,25.6,25.6v443.733
		C135.533,474.453,132.12,477.867,127,477.867z M101.4,460.8h17.067V25.6c0-5.12-3.413-8.533-8.533-8.533
		c-5.12,0-8.533,3.413-8.533,8.533V460.8z"/>
	<path d="M178.2,93.867H127c-5.12,0-8.533-3.413-8.533-8.533S121.88,76.8,127,76.8h51.2c5.12,0,8.533,3.413,8.533,8.533
		S183.32,93.867,178.2,93.867z"/>
	<path d="M178.2,170.667H127c-5.12,0-8.533-3.413-8.533-8.533c0-5.12,3.413-8.533,8.533-8.533h51.2c5.12,0,8.533,3.413,8.533,8.533
		C186.733,167.253,183.32,170.667,178.2,170.667z"/>
	<path d="M459.8,221.867H178.2c-5.12,0-8.533-3.413-8.533-8.533v-179.2c0-5.12,3.413-8.533,8.533-8.533h281.6
		c5.12,0,8.533,3.413,8.533,8.533v179.2C468.333,218.453,464.92,221.867,459.8,221.867z M186.733,204.8h264.533V42.667H186.733
		V204.8z"/>
	<path d="M229.4,179.2c-5.12,0-8.533-3.413-8.533-8.533V76.8c0-5.12,3.413-8.533,8.533-8.533c5.12,0,8.533,3.413,8.533,8.533v93.867
		C237.933,175.787,234.52,179.2,229.4,179.2z"/>
	<path d="M255,136.533h-25.6c-5.12,0-8.533-3.413-8.533-8.533c0-5.12,3.413-8.533,8.533-8.533H255
		c9.387,0,17.067-7.68,17.067-17.067S264.387,85.333,255,85.333h-25.6c-5.12,0-8.533-3.413-8.533-8.533s3.413-8.533,8.533-8.533H255
		c18.773,0,34.133,15.36,34.133,34.133S273.773,136.533,255,136.533z"/>
	<path d="M365.933,85.333H331.8c-5.12,0-8.533-3.413-8.533-8.533s3.413-8.533,8.533-8.533h34.133c5.12,0,8.533,3.413,8.533,8.533
		S371.053,85.333,365.933,85.333z"/>
	<path d="M391.533,128H331.8c-5.12,0-8.533-3.413-8.533-8.533s3.413-8.533,8.533-8.533h59.733c5.12,0,8.533,3.413,8.533,8.533
		S396.653,128,391.533,128z"/>
	<path d="M408.6,170.667h-76.8c-5.12,0-8.533-3.413-8.533-8.533c0-5.12,3.413-8.533,8.533-8.533h76.8
		c5.12,0,8.533,3.413,8.533,8.533C417.133,167.253,413.72,170.667,408.6,170.667z"/>
</g>
</svg>