<?xml version="1.0" encoding="UTF-8"?>
<svg version="1.0" xmlns="http://www.w3.org/2000/svg"
 width="520.000000pt" height="250.000000pt" viewBox="0 0 520.000000 250.000000"
 preserveAspectRatio="xMidYMid meet">
<path d="M0 0 C1.44871929 1.25802863 2.88595684 2.52937949 4.3125 3.8125 C5.78009766 4.98619141 5.78009766 4.98619141 7.27734375 6.18359375 C23.14920126 19.39052205 32.29390878 41.77611308 34.3125 61.8125 C35.7970292 84.83572473 28.77596139 103.75055502 18.31835938 123.86132812 C17.36256322 125.71538707 16.43624115 127.58140871 15.515625 129.453125 C4.25077253 151.95230188 -12.40772694 173.60301744 -29.6875 191.8125 C-31.54979394 193.84681306 -33.39921571 195.89271862 -35.25 197.9375 C-36.72891413 199.56272984 -38.20798687 201.18781544 -39.6875 202.8125 C-39.11717041 202.92319824 -38.54684082 203.03389648 -37.95922852 203.14794922 C-35.3876482 203.65224239 -32.81888957 204.16968237 -30.25 204.6875 C-29.35216797 204.86152344 -28.45433594 205.03554687 -27.52929688 205.21484375 C-26.67529297 205.38886719 -25.82128906 205.56289062 -24.94140625 205.7421875 C-24.15064697 205.89929199 -23.3598877 206.05639648 -22.54516602 206.21826172 C-21.62562134 206.51240967 -21.62562134 206.51240967 -20.6875 206.8125 C-20.3575 207.4725 -20.0275 208.1325 -19.6875 208.8125 C-20.38834717 208.76125977 -21.08919434 208.71001953 -21.8112793 208.65722656 C-24.99809864 208.43677303 -28.18604027 208.24933164 -31.375 208.0625 C-32.47779297 207.98128906 -33.58058594 207.90007812 -34.71679688 207.81640625 C-41.09453465 207.33442181 -41.09453465 207.33442181 -46.7890625 209.8046875 C-47.41554688 210.46726563 -48.04203125 211.12984375 -48.6875 211.8125 C-52.11083251 211.65327523 -53.2506237 211.2493763 -55.6875 208.8125 C-58.56886734 208.97614529 -58.56886734 208.97614529 -61.75 209.625 C-63.37615234 209.91310547 -63.37615234 209.91310547 -65.03515625 210.20703125 C-67.59666839 210.54433333 -67.59666839 210.54433333 -68.6875 211.8125 C-61.7575 213.1325 -54.8275 214.4525 -47.6875 215.8125 C-47.6875 216.4725 -47.6875 217.1325 -47.6875 217.8125 C-51.23022945 217.53292911 -54.7713775 217.23668689 -58.3125 216.9375 C-59.31152344 216.85886719 -60.31054688 216.78023437 -61.33984375 216.69921875 C-66.39893272 216.26366804 -70.93408637 215.74306731 -75.6875 213.8125 C-75.62890625 211.48828125 -75.62890625 211.48828125 -74.6875 208.8125 C-72.24798735 207.59123594 -70.20060518 206.76789793 -67.625 206 C-66.96177734 205.78408203 -66.29855469 205.56816406 -65.61523438 205.34570312 C-63.97861532 204.81586242 -62.33372994 204.3116794 -60.6875 203.8125 C-61.16058594 203.36261719 -61.63367188 202.91273438 -62.12109375 202.44921875 C-67.79123738 196.93381588 -72.76807895 190.99876444 -77.6875 184.8125 C-78.83992188 183.62720703 -78.83992188 183.62720703 -80.015625 182.41796875 C-82.33553349 178.80259734 -81.5614833 176.95668032 -80.6875 172.8125 C-79.38061523 169.61865234 -79.38061523 169.61865234 -77.74609375 166.3984375 C-77.16279297 165.22539062 -76.57949219 164.05234375 -75.97851562 162.84375 C-75.36181936 161.6244216 -74.74396949 160.40567601 -74.125 159.1875 C-72.90384372 156.78395432 -71.6965178 154.37507933 -70.49609375 151.9609375 C-69.68869751 150.37031494 -69.68869751 150.37031494 -68.86499023 148.74755859 C-67.66924038 145.76698536 -67.27803584 143.9771158 -67.6875 140.8125 C-68.71636362 139.10844463 -69.74582785 137.40472425 -70.78515625 135.70703125 C-72.42762955 132.25854836 -72.11430924 129.59281041 -71.6875 125.8125 C-69.99972208 122.09938857 -67.65798274 119.57812186 -64.6875 116.8125 C-65.40292969 116.53664062 -66.11835937 116.26078125 -66.85546875 115.9765625 C-69.64488855 114.83001478 -72.31040358 113.55022885 -75 112.1875 C-76.32451172 111.51847656 -76.32451172 111.51847656 -77.67578125 110.8359375 C-78.33964844 110.49820313 -79.00351563 110.16046875 -79.6875 109.8125 C-79.6875 109.1525 -79.6875 108.4925 -79.6875 107.8125 C-68.75547741 106.95508646 -58.03471224 110.7520791 -49.6875 117.8125 C-46.15097941 121.2519079 -43.60434733 124.90447941 -41.1875 129.1875 C-39.47485384 131.98210357 -38.97295014 132.68563327 -35.875 134.0625 C-28.37847424 133.47453719 -22.9956562 128.78889644 -17.6875 123.8125 C-18.55761719 123.68294922 -18.55761719 123.68294922 -19.4453125 123.55078125 C-26.54980276 122.27291089 -30.2780124 120.18578264 -34.5625 114.1875 C-36.61025274 108.04424178 -36.834751 102.19198355 -34 96.3125 C-30.81736584 92.87181442 -28.28127929 91.01596119 -23.56640625 90.4140625 C-16.49233395 90.46405594 -11.50065956 90.65678174 -5.875 95.3125 C-2.9134668 99.05338404 -3.61375645 103.31414367 -3.6875 107.8125 C-0.40656862 105.49654844 1.86718552 103.14728455 4.125 99.875 C7.17928998 95.6085636 10.71523159 93.23948434 15.3125 90.8125 C13.45951174 81.96353565 5.24350694 77.6569743 -1.6875 72.8125 C-2.42871094 72.36777344 -3.16992188 71.92304687 -3.93359375 71.46484375 C-6.44860049 69.09547214 -6.59290132 66.92667675 -7.1875 63.5625 C-8.67174233 56.49467939 -9.87347126 52.03561874 -15.73828125 47.40234375 C-21.83047672 43.72681311 -28.87149473 42.48963896 -35.73406982 40.93203735 C-38.22273924 40.36699913 -40.70658461 39.78396369 -43.18994141 39.19604492 C-47.28059229 38.22964302 -51.37413268 37.27630051 -55.46887207 36.32739258 C-69.67016984 33.03159758 -83.33063023 29.73303506 -96.6875 23.8125 C-98.35136467 23.13887058 -100.01701376 22.46953726 -101.6875 21.8125 C-99.48940214 32.43663966 -94.07409555 38.26304814 -85.25 44.1875 C-84.404375 44.72375 -83.55875 45.26 -82.6875 45.8125 C-84.6875 48.8125 -84.6875 48.8125 -87.0703125 49.32421875 C-87.97523437 49.38222656 -88.88015625 49.44023438 -89.8125 49.5 C-90.72257812 49.56574219 -91.63265625 49.63148437 -92.5703125 49.69921875 C-93.61832031 49.75529297 -93.61832031 49.75529297 -94.6875 49.8125 C-94.1925 47.8325 -94.1925 47.8325 -93.6875 45.8125 C-95.01088632 45.12629969 -96.34699948 44.46463539 -97.6875 43.8125 C-98.75677734 43.18988281 -98.75677734 43.18988281 -99.84765625 42.5546875 C-103.96188442 41.47944217 -106.76710828 43.05986963 -110.4375 44.8125 C-111.5059314 45.30472046 -111.5059314 45.30472046 -112.59594727 45.80688477 C-124.66759136 51.49534611 -134.4846463 59.31229308 -142.375 70.125 C-142.808125 70.681875 -143.24125 71.23875 -143.6875 71.8125 C-144.0175 71.8125 -144.3475 71.8125 -144.6875 71.8125 C-144.98616309 66.44888468 -144.23218244 62.96956149 -141.94140625 58.12890625 C-141.65504303 57.51581604 -141.36867981 56.90272583 -141.07363892 56.27105713 C-140.14676147 54.29853019 -139.19980789 52.33657603 -138.25 50.375 C-137.60230189 49.01732315 -136.95492359 47.65949368 -136.30786133 46.30151367 C-124.18772668 21.00789054 -110.54033785 -1.20832522 -82.85961914 -11.18652344 C-55.38414522 -20.5625892 -23.36475696 -18.50292879 0 0 Z " fill="#0F4483" transform="translate(147.6875,29.1875)"/>
<path d="M0 0 C1.94920349 0.68806458 1.94920349 0.68806458 4 2 C4.63075256 4.1973114 4.63075256 4.1973114 4.81274414 6.9909668 C4.88794785 8.05225296 4.96315155 9.11353912 5.04063416 10.20698547 C5.10070145 11.38004745 5.16076874 12.55310944 5.22265625 13.76171875 C5.29782974 14.99589035 5.37300323 16.23006195 5.45045471 17.50163269 C6.464093 35.9178945 6.38813711 54.3824031 6.45629883 72.82104492 C6.47219805 76.88646614 6.50237606 80.95158655 6.54106331 85.01685143 C6.55262181 86.54334009 6.55864285 88.06988215 6.55874443 89.59641457 C6.55893732 91.7140955 6.57724358 93.83093673 6.59936523 95.94848633 C6.60443588 97.14532547 6.60950653 98.34216461 6.61473083 99.57527161 C7.07800231 103.69337684 8.09639724 106.3237557 10 110 C16.87737398 114.84542258 26.52855031 113.89625931 34.50390625 112.58984375 C39.47944301 110.8079979 41.25099531 107.23510638 43.625 102.6875 C45.73198531 98.22898441 47.54313072 93.66315679 49.31518555 89.06347656 C53.89664868 77.17951142 59.19232798 70.12274009 70.9375 64.625 C78.62856541 63.05539482 84.74105378 63.44944153 91.6796875 67.33203125 C102.78518091 75.31527315 107.11478109 90.09930488 109.55859375 102.93359375 C111.22997328 114.54450467 109.88030403 123.72202608 103.125 133.375 C99.72078862 137.64103705 96.23193596 140.25602135 91 142 C77.53837479 143.3034272 66.36341696 138.82897654 55 132 C54.071875 131.44441406 53.14375 130.88882813 52.1875 130.31640625 C51.465625 129.88199219 50.74375 129.44757813 50 129 C49.62488281 129.53109375 49.24976563 130.0621875 48.86328125 130.609375 C44.73070432 136.3137885 40.92791641 140.85996299 34 143 C21.41243666 144.27057238 9.46952476 144.13770013 -0.875 136.25 C-9.49670458 128.1963136 -10.80887882 115.74976839 -11.26538086 104.56323242 C-11.33526606 102.49408982 -11.40156069 100.42482379 -11.46484375 98.35546875 C-11.54230234 96.05801808 -11.61994583 93.76057363 -11.69775391 91.46313477 C-11.73684875 90.27309845 -11.7759436 89.08306213 -11.81622314 87.85696411 C-12.57997781 63.93880325 -12.57997781 63.93880325 -14.125 40.0625 C-14.20314941 39.03535889 -14.28129883 38.00821777 -14.36181641 36.94995117 C-14.68045213 32.77766015 -15.04172967 28.62272353 -15.51171875 24.46484375 C-15.94400081 18.76658027 -16.07950979 15.50730878 -12.68359375 10.765625 C-8.89596107 6.65463412 -4.49588264 3.2969806 0 0 Z M60.1015625 97.57421875 C59.73804688 98.04472656 59.37453125 98.51523438 59 99 C61.9953981 103.25896553 65.31207083 105.71828057 69.8125 108.1875 C70.69905273 108.70086914 70.69905273 108.70086914 71.60351562 109.22460938 C77.08571846 112.30349101 82.56074324 114.3212079 88.9375 114.125 C89.70964844 114.10695313 90.48179687 114.08890625 91.27734375 114.0703125 C92.13005859 114.03550781 92.13005859 114.03550781 93 114 C92.68450239 105.63931342 89.38150187 98.38150187 83.4375 92.4375 C73.68554487 86.68634697 67.03951138 88.9818359 60.1015625 97.57421875 Z " fill="#104483" transform="translate(359,48)"/>
<path d="M0 0 C3.20826268 3.52597413 5.1114303 7.08044652 7 11.4375 C10.9920606 20.22399567 14.05671594 25.04795018 23 29 C26.33875966 30.03150408 29.47324712 30.16949299 32.95849609 30.24951172 C34.16009369 30.27979462 35.36169128 30.31007751 36.59970093 30.34127808 C37.894534 30.37045319 39.18936707 30.3996283 40.5234375 30.4296875 C41.87100282 30.46512337 43.2185473 30.50135998 44.56607056 30.5383606 C50.27881901 30.69474742 55.99164913 30.84471416 61.70507812 30.97412109 C65.20491129 31.0539068 68.70414708 31.14753697 72.20338821 31.24994278 C74.17614311 31.30373868 76.14929156 31.34241985 78.12240601 31.38082886 C79.33030792 31.41741608 80.53820984 31.4540033 81.78271484 31.49169922 C82.8409848 31.51755096 83.89925476 31.54340271 84.98959351 31.57003784 C89.36133768 32.19443344 92.81993744 33.65135707 95.75 37 C100.64625475 48.75101139 100.40584021 63.1423066 96 75 C95.01 75.33 94.02 75.66 93 76 C92.82984375 75.31292969 92.6596875 74.62585938 92.484375 73.91796875 C92.24203125 73.01691406 91.9996875 72.11585938 91.75 71.1875 C91.51796875 70.29417969 91.2859375 69.40085937 91.046875 68.48046875 C89.76365713 65.44000849 88.89593395 64.57572877 86 63 C79.16156942 60.8481501 72.7440198 60.70498881 65.609375 60.69140625 C63.18359139 60.66624239 60.75781019 60.64084442 58.33203125 60.61523438 C54.54281261 60.58656159 50.75363598 60.56251806 46.96435547 60.54370117 C43.28330979 60.52189005 39.6027496 60.48243869 35.921875 60.44140625 C34.247836 60.44123253 34.247836 60.44123253 32.53997803 60.4410553 C19.41472088 60.27810605 7.39079187 57.53050439 -2.06640625 47.89453125 C-5.80989607 43.32634173 -8.46570649 38.45216039 -10.859375 33.06640625 C-11.9630825 30.692112 -11.9630825 30.692112 -15 29 C-24.95003563 27.40353906 -33.67832548 31.13030296 -41.6875 36.75 C-49.38187319 42.673793 -55.4285765 49.25738594 -61.140625 57.09375 C-61.75421875 57.7228125 -62.3678125 58.351875 -63 59 C-64.32 59 -65.64 59 -67 59 C-66.55931532 52.3438251 -64.00618468 47.20311259 -61 41.3125 C-60.5037915 40.33442383 -60.00758301 39.35634766 -59.49633789 38.34863281 C-55.64655087 30.92417574 -51.54855209 24.29809334 -46 18 C-45.24460938 17.13503906 -44.48921875 16.27007812 -43.7109375 15.37890625 C-32.87965172 3.78907766 -15.99215887 -9.09358053 0 0 Z " fill="#104483" transform="translate(241,131)"/>
<path d="M0 0 C2.125 0.9375 2.125 0.9375 4 2 C4.86778206 14.3593866 5.17691172 26.66292704 5.203125 39.05078125 C5.20736607 40.42812974 5.20736607 40.42812974 5.21169281 41.83330345 C5.22652732 46.67769008 5.23585993 51.52204806 5.24023438 56.36645508 C5.24574662 61.32982441 5.26987764 66.29292331 5.29820633 71.25620747 C5.31691574 75.11607119 5.32204236 78.97587015 5.32357025 82.83577538 C5.32657027 84.66519869 5.33450748 86.4946216 5.34775543 88.3239994 C5.4815193 108.18410332 1.91208412 124.79186591 -12.3671875 139.5078125 C-20.83667094 147.52491997 -20.83667094 147.52491997 -25 150 C-25.99 149.67 -26.98 149.34 -28 149 C-27.7854591 144.81645248 -26.69531592 142.39169126 -24.25 139.125 C-21.28037109 134.9174294 -19.68671051 130.75023536 -18.1875 125.875 C-17.98092773 125.2061377 -17.77435547 124.53727539 -17.56152344 123.84814453 C-15.22037155 115.86658721 -14.80741986 108.24951353 -14.8125 100 C-14.81185547 98.87150635 -14.81121094 97.7430127 -14.81054688 96.58032227 C-14.89176851 82.35084528 -15.60313748 68.13874828 -16.28833008 53.92773438 C-16.55754506 48.28621996 -16.79512932 42.64421597 -17 37 C-17.03312286 36.12331665 -17.06624573 35.2466333 -17.10037231 34.34338379 C-17.18410917 31.868189 -17.23992102 29.39413309 -17.28515625 26.91796875 C-17.31121948 26.19479965 -17.33728271 25.47163055 -17.36413574 24.72654724 C-17.4201036 18.6741194 -15.3701131 15.35567097 -11.23828125 11.12109375 C-10.49964844 10.42113281 -9.76101563 9.72117187 -9 9 C-7.69627312 7.48949246 -6.4037018 5.96925015 -5.125 4.4375 C-2.26595745 1.13297872 -2.26595745 1.13297872 0 0 Z " fill="#104483" transform="translate(492,57)"/>
<path d="M0 0 C1.79824219 -0.02900391 1.79824219 -0.02900391 3.6328125 -0.05859375 C7.44244737 0.52432628 8.6153366 1.3676646 10.875 4.4375 C11.79603648 10.42423711 9.80231549 14.40617651 6.875 19.4375 C3.92667119 18.84659022 2.86032145 18.42475284 0.5 16.375 C-2.68611425 14.02334424 -4.2486803 13.93189308 -8.125 14.4375 C-9.115 15.0975 -10.105 15.7575 -11.125 16.4375 C-10.12364038 19.16848078 -9.54034432 20.23198094 -6.88793945 21.54443359 C-4.00375495 22.4766901 -1.62850365 22.75023172 1.39453125 22.8515625 C2.41611328 22.89023437 3.43769531 22.92890625 4.49023438 22.96875 C6.07288086 23.01515625 6.07288086 23.01515625 7.6875 23.0625 C8.76193359 23.10117187 9.83636719 23.13984375 10.94335938 23.1796875 C13.58707088 23.27368613 16.2307805 23.35934573 18.875 23.4375 C20.12609059 27.19077178 19.45653089 28.03073511 17.75 31.5 C17.12738281 32.81677734 17.12738281 32.81677734 16.4921875 34.16015625 C12.52087006 39.75261536 3.0599507 40.08473083 -3.2890625 41.49414062 C-7.36547775 42.42880441 -11.22259895 43.36447294 -15.0390625 45.09765625 C-18.125 46.4375 -18.125 46.4375 -22.125 46.4375 C-21.19166667 39.6375 -21.19166667 39.6375 -20.25 36.8125 C-19.83109984 34.13758922 -19.83109984 34.13758922 -22.5 31.75 C-23.36625 30.986875 -24.2325 30.22375 -25.125 29.4375 C-26.90019949 25.88710103 -26.7516298 22.30573395 -26.125 18.4375 C-21.28524328 7.89374429 -11.7841395 0.01272585 0 0 Z " fill="#104483" transform="translate(488.125,12.5625)"/>
<path d="M0 0 C3.46679688 0.04882812 3.46679688 0.04882812 6.93359375 0.09765625 C8.25359375 3.39765625 9.57359375 6.69765625 10.93359375 10.09765625 C11.57296875 8.63328125 12.21234375 7.16890625 12.87109375 5.66015625 C14.80859375 1.22265625 14.80859375 1.22265625 15.93359375 0.09765625 C17.43097499 -0.00024945 18.93302267 -0.03209239 20.43359375 -0.02734375 C21.24828125 -0.02992188 22.06296875 -0.0325 22.90234375 -0.03515625 C24.93359375 0.09765625 24.93359375 0.09765625 25.93359375 1.09765625 C26.03352907 3.15820935 26.06440281 5.22218215 26.06640625 7.28515625 C26.06833984 9.16847656 26.06833984 9.16847656 26.0703125 11.08984375 C26.06717041 12.07549316 26.06717041 12.07549316 26.06396484 13.08105469 C26.05861609 15.0892696 26.06391066 17.09726084 26.0703125 19.10546875 C26.06902344 20.36101562 26.06773437 21.6165625 26.06640625 22.91015625 C26.06527832 24.07160156 26.06415039 25.23304688 26.06298828 26.4296875 C25.93359375 29.09765625 25.93359375 29.09765625 24.93359375 30.09765625 C22.60061942 30.13858562 20.2665415 30.14007348 17.93359375 30.09765625 C17.43859375 25.14765625 17.43859375 25.14765625 16.93359375 20.09765625 C16.27359375 21.41765625 15.61359375 22.73765625 14.93359375 24.09765625 C11.62109375 24.41015625 11.62109375 24.41015625 7.93359375 24.09765625 C5.99609375 21.59765625 5.99609375 21.59765625 4.93359375 19.09765625 C4.97484375 20.17015625 5.01609375 21.24265625 5.05859375 22.34765625 C4.94501125 25.7551311 4.72086011 27.30505256 2.93359375 30.09765625 C0.95359375 30.09765625 -1.02640625 30.09765625 -3.06640625 30.09765625 C-3.09106371 25.98593065 -3.10924584 21.87423347 -3.12133789 17.76245117 C-3.12637705 16.36270397 -3.13320841 14.96296205 -3.1418457 13.56323242 C-3.15392945 11.55519848 -3.15910432 9.54712668 -3.1640625 7.5390625 C-3.16929932 6.32935791 -3.17453613 5.11965332 -3.17993164 3.87329102 C-3.02736301 0.14307009 -3.02736301 0.14307009 0 0 Z " fill="#104483" transform="translate(202.06640625,196.90234375)"/>
<path d="M0 0 C4.51790104 2.19486682 8.07612072 5.51484524 11.75 8.875 C12.33910156 9.39191406 12.92820313 9.90882812 13.53515625 10.44140625 C15.94848427 12.64391481 17.74492103 14.49713003 19.23046875 17.42578125 C18.85376838 21.63333285 16.23381871 24.17604237 13.5625 27.3125 C12.76875977 28.28026367 12.76875977 28.28026367 11.95898438 29.26757812 C10.65277614 30.85620977 9.32811508 32.42963673 8 34 C2.6277594 33.6527449 -0.30581132 30.55824962 -4.125 27.125 C-4.74503906 26.58230469 -5.36507812 26.03960937 -6.00390625 25.48046875 C-8.75380032 23.06174472 -11.42819264 20.60847853 -14 18 C-12.53735429 13.51233702 -10.03014641 10.28228495 -7 6.75 C-6.54882812 6.20859375 -6.09765625 5.6671875 -5.6328125 5.109375 C-2.27773268 1.13886634 -2.27773268 1.13886634 0 0 Z " fill="#17A2D9" transform="translate(201,84)"/>
<path d="M0 0 C5.00619855 0.3879342 7.68033027 3.02482245 11.125 6.375 C11.64964844 6.87 12.17429688 7.365 12.71484375 7.875 C14.15453851 9.23815403 15.57794228 10.61845675 17 12 C17.92425781 12.76183594 17.92425781 12.76183594 18.8671875 13.5390625 C20 15 20 15 20.4609375 17.3359375 C19.82131162 21.03275828 18.07655863 22.81769469 15.625 25.625 C13.25128484 28.37549534 11.01642961 30.97535558 9 34 C5.59533676 33.41132576 3.88023004 32.28268537 1.3984375 29.91015625 C0.74359375 29.29076172 0.08875 28.67136719 -0.5859375 28.03320312 C-1.25882813 27.38287109 -1.93171875 26.73253906 -2.625 26.0625 C-3.6459375 25.09280273 -3.6459375 25.09280273 -4.6875 24.10351562 C-7.15035871 21.75990601 -9.59599849 19.40400151 -12 17 C-11.64782861 13.90089175 -10.51336019 12.08432205 -8.49609375 9.765625 C-7.75649414 8.90517578 -7.75649414 8.90517578 -7.00195312 8.02734375 C-6.48568359 7.44082031 -5.96941406 6.85429688 -5.4375 6.25 C-4.91736328 5.64800781 -4.39722656 5.04601562 -3.86132812 4.42578125 C-2.58043726 2.94511841 -1.29103688 1.47182458 0 0 Z " fill="#17A2D9" transform="translate(232,83)"/>
<path d="M0 0 C4.19596947 1.39366129 6.79298574 3.35840221 10 6.375 C13.23679326 9.3993787 16.50968943 12.27007852 20 15 C19.69582237 21.0835525 16.77229184 24.52456056 13 29 C12.29875 29.845625 11.5975 30.69125 10.875 31.5625 C10.25625 32.036875 9.6375 32.51125 9 33 C4.10988714 32.35159076 0.63831397 29.06791283 -3.1875 26.1875 C-4.29254883 25.38602539 -4.29254883 25.38602539 -5.41992188 24.56835938 C-6.12052734 24.04435547 -6.82113281 23.52035156 -7.54296875 22.98046875 C-8.18258545 22.50504639 -8.82220215 22.02962402 -9.48120117 21.53979492 C-11.31274663 19.68292991 -11.79796826 18.59420014 -12 16 C-10.4825369 13.45817592 -8.9701327 11.21485618 -7.1875 8.875 C-6.72279297 8.24207031 -6.25808594 7.60914062 -5.77929688 6.95703125 C-3.96210408 4.50108346 -2.16276203 2.16276203 0 0 Z " fill="#17A2D9" transform="translate(314,115)"/>
<path d="M0 0 C3.86456067 0.65624615 4.23326417 1.23524134 6.5 4.25 C8.5743042 7.28431275 10.41792091 10.40486819 12.3125 13.5625 C12.6425 9.2725 12.9725 4.9825 13.3125 0.5625 C15.6225 0.5625 17.9325 0.5625 20.3125 0.5625 C21.62833724 3.19417448 21.44205012 5.17725788 21.4453125 8.12109375 C21.44724609 9.78301758 21.44724609 9.78301758 21.44921875 11.47851562 C21.44535156 12.64060547 21.44148438 13.80269531 21.4375 15 C21.44330078 16.73733398 21.44330078 16.73733398 21.44921875 18.50976562 C21.44792969 19.61900391 21.44664062 20.72824219 21.4453125 21.87109375 C21.44418457 22.89001709 21.44305664 23.90894043 21.44189453 24.95874023 C21.3125 27.5625 21.3125 27.5625 20.3125 30.5625 C17.1875 31.125 17.1875 31.125 13.3125 30.5625 C10.82605998 27.83471253 9.10433043 24.77448087 7.3125 21.5625 C6.6525 20.5725 5.9925 19.5825 5.3125 18.5625 C5.25191406 19.26117188 5.19132812 19.95984375 5.12890625 20.6796875 C5.04511719 21.58976562 4.96132813 22.49984375 4.875 23.4375 C4.79378906 24.34242188 4.71257812 25.24734375 4.62890625 26.1796875 C4.3125 28.5625 4.3125 28.5625 3.3125 30.5625 C1.31295254 30.60504356 -0.68791636 30.60330783 -2.6875 30.5625 C-4.51784055 28.73215945 -3.81792797 25.83038008 -3.8203125 23.375 C-3.82160156 22.11945313 -3.82289063 20.86390625 -3.82421875 19.5703125 C-3.82212402 18.91321289 -3.8200293 18.25611328 -3.81787109 17.57910156 C-3.81252234 15.57088665 -3.81781691 13.56289541 -3.82421875 11.5546875 C-3.82292969 10.29914063 -3.82164062 9.04359375 -3.8203125 7.75 C-3.81862061 6.00783203 -3.81862061 6.00783203 -3.81689453 4.23046875 C-3.64166374 0.61740831 -3.53130943 0.73911128 0 0 Z " fill="#104483" transform="translate(275.6875,196.4375)"/>
<path d="M0 0 C2.61342987 2.00404839 3.73231847 3.55459554 4.25 6.80859375 C3.8125 9.05859375 3.8125 9.05859375 2.8125 10.05859375 C0.4375 10.30859375 0.4375 10.30859375 -2.1875 10.05859375 C-2.620625 9.56359375 -3.05375 9.06859375 -3.5 8.55859375 C-5.60867574 6.68421531 -6.54253576 6.82827378 -9.3125 6.80859375 C-12.9650907 6.61614624 -12.9650907 6.61614624 -14.1875 8.05859375 C-14.28623816 10.05658947 -14.31721799 12.05816533 -14.3125 14.05859375 C-14.31507813 15.15171875 -14.31765625 16.24484375 -14.3203125 17.37109375 C-14.49297755 19.97689729 -14.49297755 19.97689729 -13.1875 21.05859375 C-10.51691149 21.19974536 -7.86317762 21.10106482 -5.1875 21.05859375 C-4.8575 20.39859375 -4.5275 19.73859375 -4.1875 19.05859375 C-5.8375 18.72859375 -7.4875 18.39859375 -9.1875 18.05859375 C-9.230221 16.3924747 -9.22813832 14.7247649 -9.1875 13.05859375 C-8.1875 12.05859375 -8.1875 12.05859375 -5.5 11.92578125 C-4.406875 11.92835938 -3.31375 11.9309375 -2.1875 11.93359375 C-1.094375 11.93101562 -0.00125 11.9284375 1.125 11.92578125 C3.8125 12.05859375 3.8125 12.05859375 4.8125 13.05859375 C5.36226442 16.78913802 5.5861411 20.47129563 3.90625 23.91796875 C1.05818606 27.60584641 -1.65579672 29.28905923 -6.1875 30.05859375 C-11.31704513 30.19248074 -15.6651169 29.94805878 -19.75 26.62109375 C-23.53463868 22.64237103 -23.45841099 19.58874522 -23.5625 14.30859375 C-23.59988281 13.60476562 -23.63726562 12.9009375 -23.67578125 12.17578125 C-23.74222271 8.20405829 -23.36578494 5.76286438 -20.8515625 2.60546875 C-15.7596415 -2.26246745 -6.44776574 -2.77484204 0 0 Z " fill="#17A2D9" transform="translate(384.1875,197.94140625)"/>
<path d="M0 0 C3.25 1.625 3.25 1.625 5 4 C5.3125 7.25 5.3125 7.25 5 10 C2.69 10 0.38 10 -2 10 C-2.33 9.01 -2.66 8.02 -3 7 C-4.98 7.33 -6.96 7.66 -9 8 C-6.28962561 9.80691626 -4.55487182 10.50945298 -1.5 11.375 C1.18425079 12.26102099 2.86007822 12.88551854 5.0625 14.6875 C6.46997279 18.15926622 6.68237978 21.31514921 6 25 C3.60663162 28.36844439 0.99576105 30.02325841 -3 31 C-8.09104698 31 -13.16045555 30.59957292 -17 27 C-17.875 23.375 -17.875 23.375 -18 20 C-17 19 -17 19 -13.9375 18.9375 C-12.4834375 18.9684375 -12.4834375 18.9684375 -11 19 C-10.67 20.32 -10.34 21.64 -10 23 C-7.36 23 -4.72 23 -2 23 C-2 22.01 -2 21.02 -2 20 C-2.74765625 19.81824219 -3.4953125 19.63648438 -4.265625 19.44921875 C-5.25046875 19.19785156 -6.2353125 18.94648438 -7.25 18.6875 C-8.22453125 18.44386719 -9.1990625 18.20023438 -10.203125 17.94921875 C-13.05751673 16.98047966 -14.83421311 16.08612577 -17 14 C-18.07970947 9.53720086 -18.5463529 7.28392931 -16.75 3.0625 C-12.79765547 -1.59562034 -5.60710062 -0.5365285 0 0 Z " fill="#17A2D9" transform="translate(449,197)"/>
<path d="M0 0 C7.26 0 14.52 0 22 0 C22 2.31 22 4.62 22 7 C17.38 7 12.76 7 8 7 C8 8.32 8 9.64 8 11 C12.29 11 16.58 11 21 11 C21 13.31 21 15.62 21 18 C16.71 18 12.42 18 8 18 C8 19.65 8 21.3 8 23 C8.99902344 22.98839844 9.99804688 22.97679687 11.02734375 22.96484375 C12.31769531 22.95582031 13.60804688 22.94679687 14.9375 22.9375 C16.22527344 22.92589844 17.51304687 22.91429687 18.83984375 22.90234375 C22 23 22 23 23 24 C23.125 26.5 23.125 26.5 23 29 C22 30 22 30 19.86694336 30.11352539 C18.95050049 30.10828857 18.03405762 30.10305176 17.08984375 30.09765625 C16.199021 30.09515869 15.30819824 30.09266113 14.39038086 30.09008789 C13.25093018 30.08098389 12.11147949 30.07187988 10.9375 30.0625 C7.328125 30.041875 3.71875 30.02125 0 30 C0 20.1 0 10.2 0 0 Z " fill="#104483" transform="translate(239,197)"/>
<path d="M0 0 C5.95703125 -0.390625 5.95703125 -0.390625 8 0 C10.65825886 2.7384872 11.80853493 5.74760048 13.04296875 9.31640625 C13.56987305 10.83331055 13.56987305 10.83331055 14.10742188 12.38085938 C14.64206055 13.95577148 14.64206055 13.95577148 15.1875 15.5625 C15.55552734 16.61630859 15.92355469 17.67011719 16.30273438 18.75585938 C19 26.59744608 19 26.59744608 19 30 C13.61976637 30.44100276 13.61976637 30.44100276 11 30 C9.98133771 28.34467377 8.98189187 26.67739862 8 25 C5.27945614 24.22581718 2.85281661 24.14030246 0 24 C-0.66 25.98 -1.32 27.96 -2 30 C-4.64 30 -7.28 30 -10 30 C-8.82197256 22.69386986 -6.73140261 16.18797443 -3.875 9.375 C-3.50246094 8.46621094 -3.12992188 7.55742187 -2.74609375 6.62109375 C-1.83864672 4.41064586 -0.92325578 2.2038802 0 0 Z M4 11 C3.34 12.98 2.68 14.96 2 17 C3.32 17 4.64 17 6 17 C5.67 15.02 5.34 13.04 5 11 C4.67 11 4.34 11 4 11 Z " fill="#104483" transform="translate(171,197)"/>
<path d="M0 0 C2.05078125 0.03255208 4.1015625 0.06510417 6.15234375 0.09765625 C7.25712912 2.93074969 8.36118705 5.76412315 9.46484375 8.59765625 C9.92793945 9.78488281 9.92793945 9.78488281 10.40039062 10.99609375 C11.01899986 12.58494274 11.63504864 14.174791 12.24853516 15.765625 C12.84038567 17.29273361 13.44130181 18.8163669 14.05224609 20.3359375 C15.43951352 23.85263188 16.15234375 26.26373108 16.15234375 30.09765625 C12.83984375 30.41015625 12.83984375 30.41015625 9.15234375 30.09765625 C8.67796875 29.27265625 8.20359375 28.44765625 7.71484375 27.59765625 C7.19921875 26.77265625 6.68359375 25.94765625 6.15234375 25.09765625 C3.3638954 24.62362003 1.00376432 24.86393325 -1.84765625 25.09765625 C-2.13640625 25.73703125 -2.42515625 26.37640625 -2.72265625 27.03515625 C-3.84765625 29.09765625 -3.84765625 29.09765625 -5.84765625 30.09765625 C-8.18064285 30.13788016 -10.51472291 30.14085872 -12.84765625 30.09765625 C-6.83158539 0.36107745 -6.83158539 0.36107745 0 0 Z M1.15234375 11.09765625 C0.82234375 13.07765625 0.49234375 15.05765625 0.15234375 17.09765625 C1.47234375 16.76765625 2.79234375 16.43765625 4.15234375 16.09765625 C3.49234375 14.44765625 2.83234375 12.79765625 2.15234375 11.09765625 C1.82234375 11.09765625 1.49234375 11.09765625 1.15234375 11.09765625 Z " fill="#104483" transform="translate(317.84765625,196.90234375)"/>
<path d="M0 0 C0.495 1.485 0.495 1.485 1 3 C-0.23046875 4.8125 -0.23046875 4.8125 -2.1875 7 C-6.95840961 12.68645389 -10.80367482 18.82529479 -14.69799805 25.13476562 C-17.63967526 29.89147869 -20.69524657 34.48692722 -24 39 C-27.72773314 38.78698668 -29.00099259 37.99909564 -31.8125 35.4375 C-33.94855684 32.54348751 -35.05867121 29.82486481 -34.78515625 26.12890625 C-32.93608336 21.1152509 -28.11386287 18.12406128 -24 15 C-23.44344727 14.57364258 -22.88689453 14.14728516 -22.31347656 13.70800781 C-15.24838479 8.33695485 -8.16659359 3.57523683 0 0 Z " fill="#104483" transform="translate(48,104)"/>
<path d="M0 0 C2.56314499 -0.08132187 5.12368418 -0.14064175 7.6875 -0.1875 C8.40873047 -0.21263672 9.12996094 -0.23777344 9.87304688 -0.26367188 C14.47737305 -0.32674484 17.33400727 0.17254247 21 3 C23.14513656 5.6326676 23.09660944 7.74180873 22.8125 11 C22.27907268 14.37000553 21.52256739 16.57445443 19 19 C16.11788698 19.96070434 14.30149956 20.10581883 11.3125 20.0625 C10.10013672 20.04896484 10.10013672 20.04896484 8.86328125 20.03515625 C8.24839844 20.02355469 7.63351562 20.01195312 7 20 C7.01160156 20.63808594 7.02320313 21.27617187 7.03515625 21.93359375 C7.04417969 22.75988281 7.05320312 23.58617187 7.0625 24.4375 C7.07410156 25.26121094 7.08570313 26.08492187 7.09765625 26.93359375 C7 29 7 29 6 30 C4.00041636 30.04080783 1.99954746 30.04254356 0 30 C-0.77956232 25.9525754 -1.07796501 22.27794351 -0.87890625 18.1640625 C-0.83056641 17.10058594 -0.78222656 16.03710938 -0.73242188 14.94140625 C-0.67634766 13.84699219 -0.62027344 12.75257813 -0.5625 11.625 C-0.51029297 10.50738281 -0.45808594 9.38976562 -0.40429688 8.23828125 C-0.27519184 5.49186508 -0.14025096 2.74586578 0 0 Z M7 7 C7 8.98 7 10.96 7 13 C8.98 13 10.96 13 13 13 C14.10836423 11.11683841 14.10836423 11.11683841 15 9 C14.67 8.34 14.34 7.68 14 7 C11.69 7 9.38 7 7 7 Z " fill="#17A2D9" transform="translate(400,197)"/>
<path d="M0 0 C9.56548098 0.45549909 15.8026249 3.33402777 22.375 10.375 C28.18389641 17.39890462 29.4847581 23.07686024 29 32 C27.0625 32.5625 27.0625 32.5625 25 33 C23.28431687 31.28431687 23.58529204 28.78116497 23.3125 26.4375 C22.07378943 18.72079194 19.0482029 14.36391245 12.9375 9.625 C8.11537335 6.95744058 3.31013487 5.45768408 -2 4 C-1.34 2.68 -0.68 1.36 0 0 Z " fill="#139CD4" transform="translate(136,45)"/>
<path d="M0 0 C5.90758413 -0.49229868 10.15660243 0.46059408 15 4 C20.7189111 10.15216194 22.13515931 14.75528224 22 23 C20.68 23.33 19.36 23.66 18 24 C17.731875 22.989375 17.46375 21.97875 17.1875 20.9375 C15.15770017 13.15527361 15.15770017 13.15527361 9.6875 7.6875 C6.56101922 6.13756378 3.3505335 4.98064395 0 4 C0 2.68 0 1.36 0 0 Z " fill="#129BD3" transform="translate(135,54)"/>
<path d="M0 0 C0.33 0.66 0.66 1.32 1 2 C0.21753906 2.20496094 -0.56492187 2.40992188 -1.37109375 2.62109375 C-2.38300781 2.89050781 -3.39492187 3.15992188 -4.4375 3.4375 C-5.44683594 3.70433594 -6.45617187 3.97117188 -7.49609375 4.24609375 C-9.91752001 4.75978077 -9.91752001 4.75978077 -11 6 C-0.605 7.98 -0.605 7.98 10 10 C10 10.66 10 11.32 10 12 C6.45727055 11.72042911 2.9161225 11.42418689 -0.625 11.125 C-1.62402344 11.04636719 -2.62304688 10.96773437 -3.65234375 10.88671875 C-8.71143272 10.45116804 -13.24658637 9.93056731 -18 8 C-17.67 6.35 -17.34 4.7 -17 3 C-15.1096624 2.29753005 -13.21243172 1.61359151 -11.3125 0.9375 C-10.25675781 0.55464844 -9.20101562 0.17179688 -8.11328125 -0.22265625 C-4.88690822 -1.02823747 -3.12311031 -1.07480012 0 0 Z " fill="#17A2D9" transform="translate(90,235)"/>
<path d="M0 0 C4.6268493 0.23526352 7.11079494 0.37566453 10.9375 3.0625 C13.62433547 6.88920506 13.76473648 9.3731507 14 14 C12.68 14.33 11.36 14.66 10 15 C9.319375 13.329375 9.319375 13.329375 8.625 11.625 C7.27534014 8.03800992 7.27534014 8.03800992 5 6 C3.01643517 5.28591666 1.01684563 4.61382258 -1 4 C-0.67 2.68 -0.34 1.36 0 0 Z " fill="#149ED5" transform="translate(135,62)"/>
<path d="M0 0 C6.90264377 0.55705546 12.81918264 1.56444302 19.27734375 4.08203125 C19.27734375 4.41203125 19.27734375 4.74203125 19.27734375 5.08203125 C15.83918228 4.97220295 12.40212027 4.84156262 8.96484375 4.70703125 C7.98837891 4.67609375 7.01191406 4.64515625 6.00585938 4.61328125 C5.06806641 4.57460937 4.13027344 4.5359375 3.1640625 4.49609375 C2.29998779 4.46467285 1.43591309 4.43325195 0.5456543 4.40087891 C-1.72265625 4.08203125 -1.72265625 4.08203125 -4.72265625 2.08203125 C-2.72265625 0.08203125 -2.72265625 0.08203125 0 0 Z " fill="#17A2D9" transform="translate(108.72265625,232.91796875)"/>
<path d="M0 0 C2.64892779 0.38006355 3.80532155 0.80085645 5.703125 2.7421875 C6.21359375 3.44601563 6.7240625 4.14984375 7.25 4.875 C8.03117188 5.92300781 8.03117188 5.92300781 8.828125 6.9921875 C10 9 10 9 10 12 C6.00582829 10.6305697 2.96235532 9.04699404 0 6 C-0.3125 2.75 -0.3125 2.75 0 0 Z " fill="#104483" transform="translate(123,81)"/>
</svg>
